<?xml version="1.0" encoding="iso-8859-1"?>
<!-- Uploaded to: SVG Repo, www.svgrepo.com, Generator: SVG Repo Mixer Tools -->
<svg height="800px" width="800px" version="1.1" id="Layer_1" xmlns="http://www.w3.org/2000/svg" xmlns:xlink="http://www.w3.org/1999/xlink" 
	 viewBox="0 0 512 512" xml:space="preserve">
<circle style="fill:#AB5034;" cx="256" cy="256" r="245.76"/>
<path style="fill:#BD7155;" d="M10.24,256.007c0,16.411,1.61,32.444,4.68,47.955c14.89,75.227,80.66,128.971,157.344,129.526
	c0.979,0.007,1.959,0.008,2.941,0.004c135.509-0.608,244.638-110.253,244.635-245.764c-0.001-56.59-19.142-108.704-51.286-150.247
	c-34.035-17.566-72.697-27.421-113.68-27.238C119.366,10.85,10.237,120.495,10.24,256.007z"/>
<path style="fill:#E7E4CD;" d="M311.486,92.399L311.486,92.399c-57.875-57.875-157.14-52.442-221.716,12.134l0,0
	C25.193,169.109,19.76,268.374,77.636,326.249l0,0c57.875,57.875,157.14,52.442,221.716-12.134l0,0
	C363.927,249.541,369.36,150.274,311.486,92.399z"/>
<path style="fill:#FEFBE1;" d="M153.6,64.853c-1.606,0-3.199,0.048-4.783,0.132c-21.234,8.729-41.432,21.931-59.048,39.548
	c-8.337,8.335-15.679,17.254-22.035,26.583c-1.876,7.182-2.881,14.714-2.881,22.483c0,49.013,39.734,88.747,88.747,88.747
	s88.747-39.734,88.747-88.747S202.613,64.853,153.6,64.853z"/>
<path style="fill:#67A0C0;" d="M202.785,86.028c2.957,14.944,7.152,30.473,12.636,46.513c18.569,3.396,37.455,6.846,56.667,10.356
	c18.806,3.439,24.31,26.213,9.89,38.296c-14.818,12.156-28.982,24.433-42.496,36.782c4.788,19.786,11.238,40.108,19.426,60.823
	c8.278,20.905-7.823,34.674-28.931,23.198c-21.616-11.852-49.362-24.14-69.138-35.467c-16.467,7.834-25.006,14.589-41.596,24.076
	c-14.389,8.229-37.283-9.581-36.448-28.413c0.848-18.768,3.068-37.294,6.604-55.448c-8.951-16.538-11.91-18.058-18.885-38.625
	c-5.427-16.003,0.539-30.056,17.854-34.32c14.892-3.667,19.919-3.878,38.231-5.433c11.821-14.849,24.64-29.39,38.452-43.532
	C178.307,71.542,200.26,72.14,202.785,86.028z"/>
<path style="fill:#A1C5D1;" d="M242.347,153.6c0-5.613-0.545-11.095-1.541-16.418c-8.524-1.558-16.992-3.105-25.386-4.639
	c-5.485-16.04-9.679-31.571-12.635-46.513c-2.525-13.888-24.478-14.486-37.735-1.196c-13.812,14.142-26.629,28.683-38.451,43.532
	c-18.312,1.556-23.339,1.765-38.231,5.433c-17.315,4.265-23.282,18.317-17.854,34.32c6.975,20.569,9.934,22.088,18.885,38.627
	c-0.438,2.253-0.857,4.511-1.255,6.775c16.226,17.712,39.54,28.826,65.455,28.826C202.613,242.347,242.347,202.613,242.347,153.6z"
	/>
<path d="M256,0C114.841,0,0,114.841,0,256s114.841,256,256,256s256-114.841,256-256S397.159,0,256,0z M256,491.52
	C126.134,491.52,20.48,385.866,20.48,256S126.134,20.48,256,20.48S491.52,126.134,491.52,256S385.866,491.52,256,491.52z"/>
<path d="M202.581,42.323c-44.399,2.429-87.035,21.952-120.052,54.97c-3.999,4-3.999,10.483,0,14.482
	c3.999,3.998,10.483,3.998,14.481,0c22.2-22.202,48.781-36.977,76.191-44.138c-5.631,2.149-10.987,5.541-15.476,10.042
	c-12.811,13.117-25.029,26.844-36.362,40.852c-14.828,1.245-21.029,1.775-35.441,5.325c-10.79,2.657-18.939,8.521-23.56,16.959
	c-4.747,8.664-5.295,19.528-1.543,30.593c5.33,15.716,8.693,21.408,13.346,29.285c1.333,2.253,2.798,4.735,4.489,7.761
	c-3.233,17.509-5.28,35.414-6.087,53.285c-0.608,13.712,7.455,27.733,20.543,35.716c10.539,6.432,22.21,7.195,31.218,2.04
	c6.335-3.622,11.409-6.784,16.316-9.841c6.599-4.112,12.45-7.758,19.893-11.559c9.839,5.393,21.157,10.969,32.155,16.388
	c11.059,5.448,22.494,11.081,32.395,16.51c6.59,3.583,13.297,5.366,19.523,5.366c6.881-0.001,13.173-2.179,18.061-6.509
	c8.928-7.908,11.134-21.251,5.763-34.816c-7.092-17.945-12.978-35.944-17.528-53.596c12.147-10.966,24.773-21.829,37.653-32.397
	c9.858-8.26,13.985-20.94,10.777-33.09c-3.163-11.977-12.897-20.839-25.403-23.126l-29.749-5.435
	c-5.561-1.013-10.897,2.669-11.914,8.233c-1.017,5.562,2.669,10.897,8.233,11.914l29.748,5.435c6.749,1.234,8.742,6.154,9.286,8.211
	c1.178,4.462-0.365,9.01-4.047,12.094c-14.681,12.041-29.117,24.538-42.91,37.141c-2.757,2.519-3.924,6.339-3.045,9.968
	c4.947,20.439,11.627,41.359,19.857,62.183c2.081,5.255,1.963,9.946-0.299,11.952c-2.161,1.917-7.397,2.189-14.189-1.503
	c-10.263-5.627-21.903-11.361-33.158-16.907c-13.126-6.466-25.524-12.573-35.813-18.466c-2.914-1.668-6.458-1.802-9.489-0.362
	c-10.868,5.171-18.522,9.94-26.627,14.989c-4.746,2.957-9.653,6.014-15.652,9.445c-2.864,1.638-7.243,0.173-10.385-1.744
	c-6.499-3.964-11.02-11.252-10.751-17.318c0.819-18.113,2.981-36.265,6.427-53.953c0.453-2.329,0.085-4.745-1.046-6.831
	c-2.641-4.878-4.749-8.449-6.61-11.596c-4.325-7.321-6.936-11.74-11.583-25.446c-1.887-5.568-1.849-10.602,0.109-14.176
	c1.82-3.32,5.351-5.646,10.497-6.913c12.901-3.177,17.431-3.557,32.443-4.818l4.205-0.355c2.806-0.238,5.39-1.622,7.143-3.826
	c11.676-14.666,24.382-29.052,37.69-42.679c5.842-5.856,13.738-7.539,18.194-6.152c1.973,0.614,2.119,1.417,2.216,1.948
	c0.01,0.052,0.019,0.104,0.029,0.156c3.068,15.502,7.438,31.599,12.991,47.839c1.83,5.351,7.651,8.204,13.002,6.376
	c5.351-1.83,8.206-7.651,6.376-13.002c-5.25-15.353-9.377-30.533-12.266-45.12c-1.588-8.558-7.509-15.023-16.256-17.748
	c-3.715-1.158-7.695-1.562-11.73-1.305c43.65-7.919,88.132,3.331,119.386,34.587c53.79,53.789,48.346,146.753-12.134,207.233
	c-32.566,32.567-74.538,49.175-114.754,49.172c-34.472-0.003-67.655-12.212-92.482-37.039
	c-32.328-32.328-44.525-80.489-32.623-128.829c1.352-5.491-2.004-11.039-7.496-12.39c-5.487-1.35-11.039,2.003-12.392,7.494
	c-13.63,55.362,0.586,110.765,38.029,148.208c28.806,28.806,67.217,42.996,106.956,42.994c45.482,0,92.703-18.589,129.244-55.128
	c33.018-33.019,52.539-75.653,54.97-120.054c2.452-44.821-12.76-86.068-42.836-116.145
	C288.649,55.083,247.389,39.865,202.581,42.323z"/>
</svg>