<?xml version="1.0" encoding="UTF-8" standalone="no"?>
<!-- Created with Inkscape (http://www.inkscape.org/) -->

<svg
   width="79.198013mm"
   height="35.66729mm"
   viewBox="0 0 79.198013 35.66729"
   version="1.1"
   id="svg13749"
   inkscape:version="1.1.2 (b8e25be833, 2022-02-05)"
   sodipodi:docname="bookcase.svg"
   xmlns:inkscape="http://www.inkscape.org/namespaces/inkscape"
   xmlns:sodipodi="http://sodipodi.sourceforge.net/DTD/sodipodi-0.dtd"
   xmlns="http://www.w3.org/2000/svg"
   xmlns:svg="http://www.w3.org/2000/svg">
  <sodipodi:namedview
     id="namedview13751"
     pagecolor="#505050"
     bordercolor="#ffffff"
     borderopacity="1"
     inkscape:pageshadow="0"
     inkscape:pageopacity="0"
     inkscape:pagecheckerboard="1"
     inkscape:document-units="mm"
     showgrid="false"
     inkscape:zoom="0.71090067"
     inkscape:cx="155.43662"
     inkscape:cy="-33.056657"
     inkscape:window-width="1920"
     inkscape:window-height="991"
     inkscape:window-x="-9"
     inkscape:window-y="-9"
     inkscape:window-maximized="1"
     inkscape:current-layer="layer1" />
  <defs
     id="defs13746" />
  <g
     inkscape:label="Layer 1"
     inkscape:groupmode="layer"
     id="layer1"
     transform="translate(-63.867161,-157.46335)">
    <path
       style="fill:#23a24d;stroke-width:1.95246"
       d="m 106.71329,179.99005 h -6.66279 c -0.485343,0 -0.773703,-0.49934 -0.505653,-0.87291 L 110.9189,163.3447 c 0.11372,-0.15581 0.30258,-0.24967 0.50565,-0.24967 h 6.66279 c 0.48534,0 0.7737,0.49934 0.50565,0.87291 l -11.37405,15.77244 c -0.11169,0.15581 -0.30258,0.24967 -0.50565,0.24967 z"
       id="path13490" />
    <rect
       x="118.69655"
       y="157.46335"
       style="fill:#ebba16;stroke-width:1.95246"
       width="8.1228724"
       height="22.526701"
       id="rect13492" />
    <rect
       x="126.81943"
       y="161.2178"
       style="fill:#7383bf;stroke-width:1.95246"
       width="8.1228724"
       height="18.772251"
       id="rect13494" />
    <rect
       x="65.897881"
       y="179.99005"
       style="fill:#6b5b4b;stroke-width:1.95246"
       width="75.136574"
       height="7.5089002"
       id="rect13500" />
    <rect
       x="71.990036"
       y="187.49896"
       style="fill:#443930;stroke-width:1.95246"
       width="6.0921545"
       height="5.6316752"
       id="rect13524" />
    <rect
       x="128.85014"
       y="187.49896"
       style="fill:#443930;stroke-width:1.95246"
       width="6.0921545"
       height="5.6316752"
       id="rect13526" />
    <g
       id="g13534"
       transform="matrix(2.0307182,0,0,1.8772251,27.314233,157.46335)">
      <line
         style="fill:#443930"
         x1="19"
         y1="12"
         x2="56"
         y2="12"
         id="line13530" />
      <path
         style="fill:#443930"
         d="M 56,13 H 19 c -0.553,0 -1,-0.447 -1,-1 0,-0.553 0.447,-1 1,-1 h 37 c 0.553,0 1,0.447 1,1 0,0.553 -0.447,1 -1,1 z"
         id="path13532" />
    </g>
  </g>
</svg>
