<?xml version="1.0" encoding="UTF-8" standalone="no"?>
<!-- Uploaded to: SVG Repo, www.svgrepo.com, Generator: SVG Repo Mixer Tools -->

<svg
   version="1.1"
   id="Capa_1"
   viewBox="0 0 59 53"
   xml:space="preserve"
   sodipodi:docname="bookshelf-svgrepo-com(1).svg"
   width="59"
   height="53"
   inkscape:version="1.1.2 (b8e25be833, 2022-02-05)"
   xmlns:inkscape="http://www.inkscape.org/namespaces/inkscape"
   xmlns:sodipodi="http://sodipodi.sourceforge.net/DTD/sodipodi-0.dtd"
   xmlns="http://www.w3.org/2000/svg"
   xmlns:svg="http://www.w3.org/2000/svg"><defs
   id="defs932" /><sodipodi:namedview
   id="namedview930"
   pagecolor="#505050"
   bordercolor="#ffffff"
   borderopacity="1"
   inkscape:pageshadow="0"
   inkscape:pageopacity="0"
   inkscape:pagecheckerboard="1"
   showgrid="false"
   inkscape:zoom="13.033898"
   inkscape:cx="29.5"
   inkscape:cy="26.507802"
   inkscape:window-width="1920"
   inkscape:window-height="991"
   inkscape:window-x="-9"
   inkscape:window-y="-9"
   inkscape:window-maximized="1"
   inkscape:current-layer="Capa_1" />



<path
   style="fill:#382016"
   d="m 55.121,45 c 0.525,0.861 0.878,1.855 0.667,2.909 -0.005,0.026 -0.01,0.052 -0.015,0.077 -0.361,1.85 0.256,3.364 1.664,4.928 L 57.513,53 H 56.854 C 53.56,53 51.711,49.485 51.787,47.909 51.845,46.7 51.486,45.741 51,45 Z"
   id="path885" />
<rect
   x="1"
   y="25"
   style="fill:#553323;stroke:#382016;stroke-width:2;stroke-miterlimit:10"
   width="19"
   height="20"
   id="rect887" />
<rect
   x="20"
   y="25"
   style="fill:#553323;stroke:#382016;stroke-width:2;stroke-miterlimit:10"
   width="19"
   height="20"
   id="rect889" />
<rect
   x="39"
   y="25"
   style="fill:#553323;stroke:#382016;stroke-width:2;stroke-miterlimit:10"
   width="19"
   height="20"
   id="rect891" />
<path
   style="fill:#382016"
   d="m 3.879,45 c -0.525,0.861 -0.878,1.855 -0.667,2.909 0.005,0.026 0.01,0.052 0.015,0.077 0.361,1.85 -0.256,3.364 -1.664,4.928 L 1.487,53 H 2.146 C 5.44,53 7.289,49.485 7.213,47.909 7.155,46.7 7.514,45.741 8,45 Z"
   id="path893" />
<line
   style="fill:#553323;stroke:#382016;stroke-width:2;stroke-miterlimit:10"
   x1="39"
   y1="35"
   x2="58"
   y2="35"
   id="line895" />
<rect
   x="43"
   y="29"
   style="fill:#ab8024"
   width="11"
   height="2"
   id="rect897" />
<rect
   x="43"
   y="39"
   style="fill:#ab8024"
   width="11"
   height="2"
   id="rect899" />
<rect
   x="16"
   y="35"
   style="fill:#dd352e"
   width="3"
   height="9"
   id="rect901" />
<rect
   x="13"
   y="35"
   style="fill:#dc691d"
   width="3"
   height="9"
   id="rect903" />
<rect
   x="10"
   y="35"
   style="fill:#ed8a19"
   width="3"
   height="9"
   id="rect905" />
<polygon
   style="fill:#f7b563"
   points="7,39 10,39 7,47 4,47 "
   id="polygon907"
   transform="translate(0,-3)" />
<g
   id="g1062"><path
     style="fill:none;stroke:#23a24d;stroke-width:2;stroke-linecap:round;stroke-miterlimit:10"
     d="M 10,9 C 10,5.684 12.684,3 16,3"
     id="path879" /><path
     style="fill:none;stroke:#23a24d;stroke-width:2;stroke-linecap:round;stroke-miterlimit:10"
     d="M 10,9 C 10,5.684 7.316,3 4,3"
     id="path881" /><line
     style="fill:none;stroke:#23a24d;stroke-width:2;stroke-linecap:round;stroke-miterlimit:10"
     x1="10"
     y1="9"
     x2="10"
     y2="1"
     id="line883" /><path
     style="fill:#d7b740"
     d="M 7.025,9 C 6.39,10.593 6,12.692 6,15 c 0,4.97 1.791,9 4,9 2.209,0 4,-4.03 4,-9 0,-2.308 -0.39,-4.407 -1.025,-6 z"
     id="path909" /></g>
<rect
   x="19"
   y="20"
   style="fill:#b02721"
   width="12"
   height="4"
   id="rect911" />
<rect
   x="21"
   y="16"
   style="fill:#ebba16"
   width="12"
   height="4"
   id="rect913" />
<rect
   x="19"
   y="12"
   style="fill:#dd352e"
   width="12"
   height="4"
   id="rect915" />
<path
   style="fill:#c7cac7;stroke:#c7cac7;stroke-width:2;stroke-linecap:round;stroke-miterlimit:10"
   d="M 56,19 H 42 c 1.105,0 4,0.895 4,2 0,0.449 0,2 0,2 h 6 c 0,0 0,-1.551 0,-2 0,-1.105 2.895,-2 4,-2 z"
   id="path917" />
<rect
   x="26"
   y="28"
   style="fill:#71c3a9"
   width="3"
   height="16"
   id="rect919" />
<rect
   x="29"
   y="28"
   style="fill:#694f87"
   width="3"
   height="16"
   id="rect921" />
<rect
   x="32"
   y="28"
   style="fill:#cb465f"
   width="3"
   height="16"
   id="rect923" />
<rect
   x="35"
   y="28"
   style="fill:#f7b563"
   width="3"
   height="16"
   id="rect925" />
<line
   style="fill:none;stroke:#949493;stroke-width:2;stroke-linecap:round;stroke-miterlimit:10"
   x1="41"
   y1="19"
   x2="57"
   y2="19"
   id="line927" />
</svg>
