<?xml version="1.0" encoding="iso-8859-1"?>
<!-- Uploaded to: SVG Repo, www.svgrepo.com, Generator: SVG Repo Mixer Tools -->
<svg version="1.1" id="Layer_1" xmlns="http://www.w3.org/2000/svg" xmlns:xlink="http://www.w3.org/1999/xlink" 
	 viewBox="0 0 512 512" xml:space="preserve">
<polygon style="fill:#78B9EB;" points="396.19,512 359.619,512 359.619,475.429 152.381,475.429 152.381,512 115.81,512 
	115.81,438.857 396.19,438.857 "/>
<rect x="237.714" y="176.762" style="fill:#5A8BB0;" width="36.571" height="85.333"/>
<path style="fill:#FFC170;" d="M396.19,207.238H115.81V60.952C115.81,27.343,143.153,0,176.762,0h158.476
	c33.609,0,60.952,27.343,60.952,60.952V207.238z"/>
<path style="fill:#FF9811;" d="M335.238,0H256v207.238h140.19V60.952C396.19,27.343,368.847,0,335.238,0z"/>
<g>
	<polygon style="fill:#78B9EB;" points="396.19,335.238 359.619,335.238 359.619,170.667 438.857,170.667 438.857,207.238 
		396.19,207.238 	"/>
	<polygon style="fill:#78B9EB;" points="152.381,335.238 115.81,335.238 115.81,207.238 73.143,207.238 73.143,170.667 
		152.381,170.667 	"/>
</g>
<rect x="237.714" y="335.238" style="fill:#5A8BB0;" width="36.571" height="176.762"/>
<path style="fill:#FFC170;" d="M396.19,353.524H115.81v-48.762c0-33.609,27.343-60.952,60.952-60.952h158.476
	c33.609,0,60.952,27.343,60.952,60.952V353.524z"/>
<path style="fill:#FF9811;" d="M335.238,243.81H256v109.714h140.19v-48.762C396.19,271.153,368.847,243.81,335.238,243.81z"/>
</svg>