<?xml version="1.0" encoding="iso-8859-1"?>
<!-- Uploaded to: SVG Repo, www.svgrepo.com, Generator: SVG Repo Mixer Tools -->
<svg version="1.1" id="Layer_1" xmlns="http://www.w3.org/2000/svg" xmlns:xlink="http://www.w3.org/1999/xlink" 
	 viewBox="0 0 511.999 511.999" xml:space="preserve">
<path style="fill:#9BD6FF;" d="M255.999,0l-41.8,255.999l41.8,255.999c141.385,0,255.999-114.615,255.999-255.999
	S397.385,0,255.999,0z"/>
<path style="fill:#C4EAFF;" d="M255.999,0C114.615,0,0,114.615,0,255.999s114.615,255.999,255.999,255.999V0z"/>
<rect x="157.576" y="51.44" transform="matrix(0.3827 0.9239 -0.9239 0.3827 171.738 -122.796)" style="fill:#6499F3;" width="40.364" height="31.351"/>
<g>
	
		<rect x="314.058" y="429.191" transform="matrix(0.3827 0.9239 -0.9239 0.3827 617.3306 -34.1762)" style="fill:#2D64BC;" width="40.364" height="31.351"/>
	
		<rect x="318.571" y="46.94" transform="matrix(-0.9239 -0.3827 0.3827 -0.9239 617.3612 257.0468)" style="fill:#2D64BC;" width="31.351" height="40.364"/>
</g>
<rect x="162.092" y="424.687" transform="matrix(0.9239 0.3827 -0.3827 0.9239 183.7794 -34.1649)" style="fill:#6499F3;" width="31.351" height="40.364"/>
<rect x="424.687" y="162.082" transform="matrix(0.9239 -0.3827 0.3827 0.9239 -34.1609 183.7786)" style="fill:#2D64BC;" width="40.364" height="31.351"/>
<rect x="46.94" y="318.572" transform="matrix(-0.9239 0.3827 -0.3827 -0.9239 257.0472 617.3632)" style="fill:#6499F3;" width="40.364" height="31.351"/>
<rect x="424.706" y="318.548" transform="matrix(0.9239 0.3827 -0.3827 0.9239 161.7704 -144.812)" style="fill:#2D64BC;" width="40.364" height="31.351"/>
<g>
	
		<rect x="46.928" y="162.093" transform="matrix(-0.9239 -0.3827 0.3827 -0.9239 61.0802 367.6873)" style="fill:#6499F3;" width="40.364" height="31.351"/>
	
		<rect x="88.093" y="103.382" transform="matrix(0.7071 0.7071 -0.7071 0.7071 119.0563 -49.3146)" style="fill:#6499F3;" width="61.926" height="31.35"/>
</g>
<rect x="361.986" y="377.273" transform="matrix(0.7071 0.7071 -0.7071 0.7071 392.9479 -162.7653)" style="fill:#2D64BC;" width="61.926" height="31.35"/>
<rect x="31.371" y="240.328" style="fill:#6499F3;" width="61.926" height="31.35"/>
<rect x="418.708" y="240.328" style="fill:#2D64BC;" width="61.926" height="31.35"/>
<rect x="103.382" y="361.985" transform="matrix(0.7071 0.7071 -0.7071 0.7071 312.7274 30.9058)" style="fill:#6499F3;" width="31.35" height="61.926"/>
<g>
	
		<rect x="377.265" y="88.094" transform="matrix(-0.7071 -0.7071 0.7071 -0.7071 586.6039 481.0931)" style="fill:#2D64BC;" width="31.35" height="61.926"/>
	<polygon style="fill:#2D64BC;" points="344.517,284.995 369.418,304.042 406.166,255.999 369.418,207.958 344.517,227.005 
		354.705,240.325 279.15,240.325 279.15,271.674 354.705,271.674 	"/>
	<polygon style="fill:#2D64BC;" points="271.674,31.368 255.999,31.368 245.55,62.329 255.999,93.29 271.674,93.29 	"/>
	<polygon style="fill:#2D64BC;" points="255.999,480.631 271.674,480.631 271.674,418.71 255.999,418.71 245.55,449.67 	"/>
</g>
<g>
	<rect x="240.328" y="31.371" style="fill:#6499F3;" width="15.675" height="61.926"/>
	<rect x="240.328" y="418.708" style="fill:#6499F3;" width="15.675" height="61.926"/>
</g>
<polygon style="fill:#2D64BC;" points="255.999,105.834 245.55,232.85 271.674,232.85 271.674,157.294 284.995,167.482 
	304.042,142.582 "/>
<polygon style="fill:#6499F3;" points="255.999,232.85 255.999,105.834 255.999,105.834 207.958,142.582 227.005,167.482 
	240.325,157.294 240.325,232.85 "/>
<circle style="fill:#FF8E00;" cx="256.003" cy="256.003" r="36.794"/>
<path style="fill:#FDE09C;" d="M255.999,219.208c-20.319,0-36.791,16.472-36.791,36.791c0,20.319,16.472,36.791,36.791,36.791
	V219.208z"/>
</svg>