<?xml version="1.0" encoding="iso-8859-1"?>
<!-- Uploaded to: SVG Repo, www.svgrepo.com, Generator: SVG Repo Mixer Tools -->
<svg version="1.1" id="Layer_1" xmlns="http://www.w3.org/2000/svg" xmlns:xlink="http://www.w3.org/1999/xlink" 
	 viewBox="0 0 512 512" xml:space="preserve">
<rect y="50.093" style="fill:#995C0D;" width="512" height="411.814"/>
<g>
	<polygon style="fill:#B27214;" points="37.653,99.647 10.105,72.099 10.105,439.901 37.653,412.353 	"/>
	<polygon style="fill:#B27214;" points="462.436,87.743 489.982,60.198 22.018,60.198 49.563,87.743 	"/>
	<polygon style="fill:#B27214;" points="474.351,99.655 474.351,412.345 501.895,439.889 501.895,72.111 	"/>
	<polygon style="fill:#B27214;" points="49.561,424.258 22.018,451.802 489.982,451.802 462.438,424.258 	"/>
</g>
<rect x="47.758" y="97.85" style="fill:#F7B239;" width="416.485" height="316.299"/>
<polygon style="fill:#F95428;" points="464.248,97.845 464.248,264.32 378.265,223.035 421.055,97.845 "/>
<polygon style="fill:#2BA5F7;" points="464.248,324.4 464.248,414.155 320.588,414.155 286.983,380.55 340.282,327.263 
	403.696,263.848 "/>
<g>
	<path style="fill:#98C437;" d="M421.055,97.845l-42.789,125.19l-61.326-29.451c0-52.872-42.868-95.74-95.74-95.74H421.055z"/>
	<path style="fill:#98C437;" d="M340.282,327.263l-53.298,53.287l33.605,33.605H47.763v-27.452l62.303-34.997h152.934l-36.109-62.55
		c17.246-1.01,33.268-6.591,46.876-15.551L340.282,327.263z"/>
</g>
<path style="fill:#F95428;" d="M316.939,193.585c0,33.459-17.167,62.898-43.171,80.021c-13.608,8.96-29.63,14.54-46.876,15.551
	h-0.011l-40.353-69.904l-27.295,47.292c-20.67-17.549-33.773-43.721-33.773-72.958c0-52.872,42.868-95.74,95.74-95.74
	S316.939,140.713,316.939,193.585z"/>
<polygon style="fill:#2BA5F7;" points="226.892,289.156 263.001,351.706 110.066,351.706 137.485,304.201 159.233,266.543 
	186.528,219.251 226.881,289.156 "/>
<g>
	<path style="fill:#98C437;" d="M47.763,97.845h173.436c-52.872,0-95.74,42.868-95.74,95.74l-77.697-61.753L47.763,97.845
		L47.763,97.845z"/>
	<polygon style="fill:#98C437;" points="159.233,266.543 137.485,304.201 47.763,304.201 47.763,221.654 	"/>
</g>
</svg>