<?xml version="1.0" encoding="iso-8859-1"?>
<!-- Uploaded to: SVG Repo, www.svgrepo.com, Generator: SVG Repo Mixer Tools -->
<svg height="800px" width="800px" version="1.1" id="Layer_1" xmlns="http://www.w3.org/2000/svg" xmlns:xlink="http://www.w3.org/1999/xlink" 
	 viewBox="0 0 512 512" xml:space="preserve">
<g transform="translate(1)">
	<g>
		<path style="fill:#FFDD09;" d="M378.649,269.017c-13.885-14.753-31.241-26.034-51.2-26.034c-4.339,0-8.678,0.868-12.149,1.736
			c13.885,3.471,26.034,13.017,36.447,23.431c9.546,9.546,15.62,26.034,15.62,44.258c10.414-1.736,19.959,3.471,27.77,7.81
			C396.005,301.125,388.195,279.431,378.649,269.017"/>
		<path style="fill:#FFDD09;" d="M269.307,7.81c-1.736,0-3.471,0-5.207,0c74.63,2.603,132.773,67.688,132.773,148.393
			c0,38.183-15.62,78.102-37.315,104.136c4.339,2.603,7.81,5.207,11.281,8.678c28.637-26.902,49.464-70.292,49.464-112.814
			C420.303,74.631,352.615,7.81,269.307,7.81"/>
	</g>
	<path style="fill:#FFFFFF;" d="M155.625,390.508c2.603,0,5.207,0,6.942,0.868c-20.827,3.471-37.315,26.902-37.315,55.539
		c0,28.637,16.488,52.068,37.315,55.539c-1.736,0.868-4.339,0.868-6.942,0.868c-31.241,0-56.407-25.166-56.407-56.407
		S124.384,390.508,155.625,390.508"/>
	<g>
		<path style="fill:#FFDD09;" d="M116.574,446.915c0-31.241,19.092-56.407,43.39-56.407s43.39,25.166,43.39,56.407
			s-19.092,56.407-43.39,56.407S116.574,478.156,116.574,446.915"/>
		<path style="fill:#FFDD09;" d="M133.93,351.458c0-21.695,11.281-39.051,26.034-39.051c14.753,0,26.034,17.356,26.034,39.051
			s-11.281,39.051-26.034,39.051C145.212,390.508,133.93,373.153,133.93,351.458"/>
	</g>
	<g>
		<path style="fill:#FFFFFF;" d="M185.998,351.458L185.998,351.458L185.998,351.458L185.998,351.458"/>
		<path style="fill:#FFFFFF;" d="M146.947,312.407c2.603,0,5.207,0,7.81,0.868c-12.149,3.471-20.827,19.092-20.827,38.183
			c0,19.092,8.678,34.712,20.827,38.183c-2.603,0.868-5.207,0.868-7.81,0.868c-21.695,0-39.051-17.356-39.051-39.051
			S125.252,312.407,146.947,312.407"/>
	</g>
	<path style="fill:#FFDD09;" d="M233.727,454.725c-15.62-16.488-42.522-43.39-62.481-64.217h-24.298
		c31.241,0,56.407,25.166,56.407,56.407c0,13.885-5.207,26.902-13.885,36.447c17.356,6.942,37.315,11.281,57.275,11.281
		s39.051-4.339,57.275-11.281c-8.678-9.546-13.885-22.563-13.885-36.447c0-31.241,25.166-56.407,56.407-56.407h-25.166
		c-19.959,20.827-46.861,47.729-62.481,64.217C251.951,462.536,240.669,462.536,233.727,454.725"/>
	<path style="fill:#FD9808;" d="M337.862,390.508c-2.603,0-5.207,0-6.942,0.868c21.695,3.471,37.315,26.902,37.315,55.539
		s-16.488,52.068-37.315,55.539c2.603,0,5.207,0.868,6.942,0.868c31.241,0,56.407-25.166,56.407-56.407
		S369.103,390.508,337.862,390.508"/>
	<g>
		<path style="fill:#FFDD09;" d="M375.178,390.508c-2.603,0-5.207,0-6.942,0.868c21.695,3.471,37.315,26.902,37.315,55.539
			s-16.488,52.068-37.315,55.539c2.603,0,5.207,0.868,6.942,0.868c31.241,0,56.407-25.166,56.407-56.407
			S406.418,390.508,375.178,390.508"/>
		<path style="fill:#FFDD09;" d="M376.913,446.915c0-31.241-19.092-56.407-43.39-56.407c-24.298,0-43.39,25.166-43.39,56.407
			s19.092,56.407,43.39,56.407C357.822,503.322,376.913,478.156,376.913,446.915"/>
		<path style="fill:#FFDD09;" d="M360.425,121.492c19.959-6.942,33.844-26.902,33.844-49.464c0-29.505-22.563-52.936-51.2-52.936
			l-9.546,24.298L360.425,121.492z"/>
	</g>
	<path style="fill:#FD9808;" d="M369.103,19.092c-4.339,0-8.678,0.868-13.017,1.736c21.695,6.075,38.183,26.034,38.183,51.2
		c0,13.017-5.207,25.166-13.017,34.712c1.736,5.207,3.471,10.414,4.339,15.62c19.959-6.942,33.844-26.902,33.844-49.464
		C420.303,42.522,397.74,19.092,369.103,19.092"/>
	<g>
		<path style="fill:#FFDD09;" d="M395.137,19.092c-4.339,0-8.678,0.868-13.017,1.736c21.695,6.075,38.183,26.034,38.183,51.2
			c0,13.017-5.207,25.166-13.017,34.712c1.736,5.207,3.471,10.414,4.339,15.62c19.959-6.942,33.844-26.902,33.844-49.464
			C446.337,42.522,423.774,19.092,395.137,19.092"/>
		<path style="fill:#FFDD09;" d="M133.062,121.492c-19.959-6.942-33.844-26.902-33.844-49.464c0-29.505,22.563-52.936,51.2-52.936
			l9.546,24.298L133.062,121.492z"/>
	</g>
	<path style="fill:#FFFFFF;" d="M124.384,19.092c4.339,0,8.678,0.868,13.017,1.736c-22.563,6.075-38.183,26.902-38.183,51.2
		c0,13.017,5.207,25.166,13.017,34.712c-1.736,5.207-3.471,10.414-4.339,15.62c-20.827-7.81-34.712-27.769-34.712-50.332
		C73.184,42.522,95.747,19.092,124.384,19.092"/>
	<path style="fill:#FFDD09;" d="M359.557,351.458c0-21.695-11.281-39.051-26.034-39.051c-14.753,0-26.034,17.356-26.034,39.051
		s11.281,39.051,26.034,39.051C348.276,390.508,359.557,373.153,359.557,351.458"/>
	<g>
		<path style="fill:#FD9808;" d="M307.49,351.458L307.49,351.458L307.49,351.458L307.49,351.458"/>
		<path style="fill:#FD9808;" d="M346.54,312.407c-2.603,0-5.207,0-7.81,0.868c12.149,3.471,20.827,19.092,20.827,38.183
			c0,19.092-8.678,34.712-20.827,38.183c2.603,0.868,5.207,0.868,7.81,0.868c21.695,0,39.051-17.356,39.051-39.051
			S368.235,312.407,346.54,312.407"/>
	</g>
	<g>
		<path style="fill:#FFDD09;" d="M333.523,351.458L333.523,351.458L333.523,351.458L333.523,351.458"/>
		<path style="fill:#FFDD09;" d="M372.574,312.407c-2.603,0-5.207,0-7.81,0.868c12.149,3.471,20.827,19.092,20.827,38.183
			c0,19.092-8.678,34.712-20.827,38.183c2.603,0.868,9.546,9.546,12.149,9.546c21.695,0,34.712-26.034,34.712-47.729
			S394.269,312.407,372.574,312.407"/>
		<path style="fill:#FFDD09;" d="M147.815,262.942c11.281-11.281,25.166-19.959,40.786-19.959c22.563,0,40.786,19.092,48.597,42.522
			c8.678-23.431,26.034-42.522,47.729-42.522c16.488,0,30.373,8.678,41.654,19.959c24.298-26.902,39.919-64.217,39.919-105.871
			C367.368,75.498,310.093,8.678,238.066,8.678s-130.169,66.82-130.169,148.393C107.896,199.593,123.517,236.908,147.815,262.942"/>
	</g>
	<path style="fill:#FD9808;" d="M242.405,8.678c-1.736,0-3.471,0-4.339,0c70.292,2.603,125.831,67.688,125.831,148.393
		c0,38.183-12.149,72.027-32.976,97.193c3.471,2.603,6.942,5.207,10.414,8.678c27.77-26.034,44.258-63.349,44.258-105.871
		C385.591,75.498,322.242,8.678,242.405,8.678"/>
	<path style="fill:#DB4D6C;" d="M308.357,342.78c2.603-13.017,13.017-24.298,26.034-27.77c12.149-3.471,23.431-1.736,32.108,4.339
		c1.736-19.959-5.207-39.051-15.62-49.464c-13.885-14.753-31.241-26.034-51.2-26.034c-24.298,0-43.39,19.092-52.936,42.522
		c-9.546-23.431-29.505-42.522-53.803-42.522c-20.827,0-37.315,11.281-51.2,26.034c-10.414,11.281-17.356,29.505-15.62,50.332
		c8.678-6.075,19.959-7.81,32.108-5.207c13.017,3.471,24.298,14.753,26.902,27.77c4.339,18.224-4.339,34.712-18.224,43.39
		c19.959,20.827,50.332,52.068,66.82,69.424c6.942,6.942,18.224,6.942,26.034,0c17.356-17.356,47.729-49.464,67.688-70.292
		C312.696,376.624,304.018,360.136,308.357,342.78"/>
	<path style="fill:#D21F47;" d="M352.615,269.017c-13.885-14.753-31.241-26.034-51.2-26.034c-4.339,0-8.678,0.868-12.149,1.736
		c13.885,3.471,26.034,13.017,36.447,23.431c9.546,9.546,15.62,26.034,15.62,44.258c10.414-1.736,19.092,0.868,26.902,5.207
		C369.103,297.654,362.161,279.431,352.615,269.017"/>
	<path style="fill:#DB4D6C;" d="M254.554,182.237h-15.62c-6.075,0-10.414-3.471-12.149-9.546l-2.603-9.546
		c-1.736-7.81,4.339-15.62,12.149-15.62h19.959c7.81,0,13.885,7.81,12.149,15.62l-2.603,9.546
		C264.968,178.766,259.761,182.237,254.554,182.237"/>
	<path d="M113.103,132.773l-9.546-3.471c-23.431-8.678-39.051-31.241-39.051-57.275c0-33.844,26.902-61.614,59.878-61.614
		c17.356,0,32.976,7.81,44.258,20.827l6.075,6.942l-7.81,5.207c-26.034,19.092-44.258,47.729-52.068,78.969L113.103,132.773z
		 M124.384,27.769c-23.431,0-42.522,19.959-42.522,44.258c0,15.62,7.81,29.505,19.959,37.315
		c8.678-27.769,25.166-52.936,47.729-72.027C141.74,31.241,133.062,27.769,124.384,27.769z"/>
	<path d="M380.385,132.773l-2.603-9.546c-7.81-32.108-26.034-59.878-52.068-78.969l-7.81-5.207l6.942-7.81
		c11.281-13.017,27.77-20.827,44.258-20.827c32.976,0,59.878,27.769,59.878,61.614c0,26.034-15.62,48.597-39.919,57.275
		L380.385,132.773z M343.937,36.447c22.563,19.092,39.051,44.258,47.729,72.027c12.149-7.81,19.959-21.695,19.959-37.315
		c0-24.298-19.092-44.258-42.522-44.258C360.425,27.769,351.747,31.241,343.937,36.447z"/>
	<path d="M146.947,399.186c-26.034,0-47.729-21.695-47.729-47.729c0-26.034,21.695-47.729,47.729-47.729
		s47.729,21.695,47.729,47.729C194.676,377.492,172.981,399.186,146.947,399.186z M146.947,321.085
		c-16.488,0-30.373,13.885-30.373,30.373c0,16.488,13.885,30.373,30.373,30.373s30.373-13.885,30.373-30.373
		C177.32,334.969,163.435,321.085,146.947,321.085z"/>
	<path d="M146.947,512c-35.58,0-65.085-28.637-65.085-65.085s29.505-65.085,65.085-65.085s65.085,29.505,65.085,65.085
		S182.527,512,146.947,512z M146.947,399.186c-26.034,0-47.729,21.695-47.729,47.729s21.695,47.729,47.729,47.729
		s47.729-21.695,47.729-47.729S172.981,399.186,146.947,399.186z"/>
	<path d="M346.54,512c-35.58,0-65.085-29.505-65.085-65.085s29.505-65.085,65.085-65.085s65.085,29.505,65.085,65.085
		S382.12,512,346.54,512z M346.54,399.186c-26.034,0-47.729,21.695-47.729,47.729s21.695,47.729,47.729,47.729
		s47.729-21.695,47.729-47.729S372.574,399.186,346.54,399.186z"/>
	<path d="M346.54,399.186c-26.034,0-47.729-21.695-47.729-47.729c0-26.034,21.695-47.729,47.729-47.729s47.729,21.695,47.729,47.729
		C394.269,377.492,372.574,399.186,346.54,399.186z M346.54,321.085c-16.488,0-30.373,13.885-30.373,30.373
		c0,16.488,13.885,30.373,30.373,30.373s30.373-13.885,30.373-30.373C376.913,334.969,363.029,321.085,346.54,321.085z"/>
	<path d="M246.744,469.478c-6.942,0-13.885-2.603-19.092-7.81c-17.356-17.356-46.861-48.597-66.82-69.424
		c-1.736-1.736-2.603-4.339-2.603-6.942c0-2.603,1.736-5.207,4.339-6.075c12.149-6.942,17.356-19.959,14.753-33.844
		c-2.603-10.414-10.414-19.092-20.827-21.695c-8.678-2.603-17.356-0.868-25.166,3.471c-2.603,1.736-6.075,1.736-8.678,0.868
		c-2.603-1.736-4.339-4.339-5.207-6.942c-1.736-21.695,5.207-43.39,18.224-56.407c18.224-19.092,37.315-28.637,58.142-28.637
		s40.786,12.149,53.803,32.108c13.017-19.959,32.108-32.108,52.936-32.108s39.919,9.546,58.142,28.637
		c12.149,13.017,19.092,34.712,18.224,56.407c0,2.603-1.736,6.075-4.339,6.942c-2.603,1.736-6.075,0.868-8.678,0
		c-5.207-3.471-13.885-6.075-25.166-3.471c-10.414,3.471-18.224,11.281-20.827,21.695l0,0c-2.603,13.017,2.603,26.034,13.885,32.976
		c2.603,1.736,3.471,3.471,4.339,6.075c0.868,2.603-0.868,5.207-2.603,6.942c-19.959,20.827-50.332,52.068-67.688,70.292
		C260.629,466.007,253.686,469.478,246.744,469.478z M179.056,386.169c19.959,19.959,45.125,46.861,60.746,62.481
		c3.471,3.471,9.546,3.471,13.017,0c15.62-15.62,40.786-42.522,60.746-62.481c-12.149-11.281-17.356-28.637-13.885-45.125l0,0
		c3.471-16.488,16.488-29.505,32.108-34.712c8.678-2.603,17.356-2.603,25.166-0.868c-1.736-12.149-6.075-23.431-13.017-30.373
		c-14.753-15.62-29.505-22.563-45.125-22.563c-22.563,0-37.315,19.092-45.125,37.315c0,2.603-3.471,5.207-6.942,5.207
		c-3.471,0-6.942-2.603-7.81-5.207c-6.942-17.356-22.563-37.315-45.993-37.315c-15.62,0-30.373,7.81-45.125,23.431
		c-6.942,6.942-12.149,18.224-13.017,30.373c7.81-2.603,16.488-2.603,25.166-0.868c16.488,4.339,29.505,18.224,32.976,34.712
		C197.279,357.532,192.073,374.888,179.056,386.169z M308.357,342.78L308.357,342.78L308.357,342.78z"/>
	<path d="M219.842,291.58c-6.942-18.224-18.224-22.563-26.902-22.563c-3.471,0-7.81,2.603-12.149,5.207
		c-4.339,2.603-5.207,7.81-2.603,12.149l0,0c2.603,4.339,7.81,5.207,12.149,2.603c1.736-0.868,2.603-1.736,3.471-1.736
		c4.339,0,7.81,4.339,11.281,12.149c0.868,3.471,4.339,5.207,7.81,5.207c0.868,0,1.736,0,2.603-0.868
		C218.974,301.125,221.578,295.919,219.842,291.58z"/>
	<path d="M246.744,503.322c-20.827,0-40.786-3.471-59.878-11.281l-11.281-4.339l7.81-9.546c7.81-8.678,11.281-19.959,11.281-31.241
		c0-26.034-21.695-47.729-47.729-47.729v-17.356h27.769l2.603,2.603c19.959,20.827,46.861,47.729,62.481,64.217l0,0
		c3.471,3.471,9.546,3.471,13.017,0c15.62-16.488,42.522-44.258,62.481-64.217l2.603-2.603h28.637v17.356
		c-26.034,0-47.729,21.695-47.729,47.729c0,11.281,4.339,22.563,11.281,31.241l7.81,9.546l-11.281,4.339
		C287.53,499.851,267.571,503.322,246.744,503.322z M203.354,479.892c28.637,8.678,58.142,8.678,86.78,0
		c-6.075-9.546-8.678-20.827-8.678-32.108c0-0.868,0-1.736,0-2.603c-6.075,6.075-11.281,12.149-16.488,16.488
		c-10.414,10.414-27.77,10.414-38.183,0c-4.339-4.339-9.546-9.546-15.62-15.62c0,0.868,0,0.868,0,1.736
		C212.032,458.197,208.561,469.478,203.354,479.892z"/>
	<path d="M246.744,295.051L246.744,295.051c-3.471,0-6.942-2.603-7.81-5.207c-6.942-17.356-22.563-37.315-45.993-37.315
		c-13.885,0-26.902,6.075-39.919,17.356c-3.471,3.471-8.678,2.603-12.149,0c-14.753-14.753-24.298-27.77-31.241-45.125
		c-1.736-4.339,0-9.546,4.339-11.281c4.339-1.736,9.546,0,11.281,4.339c5.207,13.017,12.149,23.431,22.563,33.844
		c13.885-11.281,29.505-16.488,45.125-16.488c20.827,0,40.786,12.149,53.803,32.108c13.017-19.959,32.108-32.108,52.936-32.108
		c15.62,0,31.241,6.075,45.125,17.356c23.431-25.166,35.58-59.01,35.58-94.59c0.868-78.102-59.878-140.583-133.641-140.583
		c-70.292,0-129.302,57.275-133.641,130.169c0,2.603,0,5.207,0,7.81c0,5.207-3.471,8.678-8.678,8.678s-8.678-3.471-8.678-8.678
		c0-3.471,0-5.207,0-8.678C100.954,65.085,166.907,0,246.744,0c83.308,0,151.864,70.292,151.864,157.071
		c0,43.39-16.488,83.308-46.861,112.814c-3.471,3.471-8.678,3.471-12.149,0c-13.017-12.149-26.034-18.224-39.919-18.224
		c-22.563,0-37.315,19.092-45.125,37.315C253.686,292.447,250.215,295.051,246.744,295.051z"/>
	<path d="M254.554,190.915h-15.62c-9.546,0-18.224-6.942-20.827-15.62l-1.736-10.414c-1.736-6.075,0-13.017,3.471-18.224
		c3.471-5.207,10.414-7.81,16.488-7.81h19.959c6.942,0,13.017,2.603,16.488,7.81c4.339,5.207,5.207,12.149,3.471,18.224
		l-2.603,9.546C272.778,183.973,264.1,190.915,254.554,190.915z M236.33,156.203c-1.736,0-2.603,0.868-2.603,1.736
		s-0.868,1.736-0.868,3.471l2.603,9.546c0,1.736,1.736,2.603,3.471,2.603h15.62c1.736,0,3.471-0.868,3.471-2.603l2.603-9.546
		c0-1.736,0-2.603-0.868-3.471s-1.736-1.736-2.603-1.736H236.33z"/>
	<path d="M264.1,225.627c-14.753,0-26.034-11.281-26.034-26.034v-17.356c0-5.207,3.471-8.678,8.678-8.678s8.678,3.471,8.678,8.678
		v17.356c0,5.207,3.471,8.678,8.678,8.678c5.207,0,8.678-3.471,8.678-8.678c0-5.207,3.471-8.678,8.678-8.678
		s8.678,3.471,8.678,8.678C290.134,214.346,278.852,225.627,264.1,225.627z"/>
	<path d="M229.388,225.627c-14.753,0-26.034-11.281-26.034-26.034c0-5.207,3.471-8.678,8.678-8.678s8.678,3.471,8.678,8.678
		c0,5.207,3.471,8.678,8.678,8.678c5.207,0,8.678-3.471,8.678-8.678c0-5.207,3.471-8.678,8.678-8.678s8.678,3.471,8.678,8.678
		C255.422,214.346,244.14,225.627,229.388,225.627z"/>
	<path d="M342.201,130.169c-5.207,0-8.678-3.471-8.678-8.678c0-9.546-7.81-17.356-17.356-17.356c-9.546,0-17.356,7.81-17.356,17.356
		c0,5.207-3.471,8.678-8.678,8.678c-5.207,0-8.678-3.471-8.678-8.678c0-19.092,15.62-34.712,34.712-34.712
		c19.092,0,34.712,15.62,34.712,34.712C350.879,126.698,347.408,130.169,342.201,130.169z"/>
	<path d="M203.354,130.169c-5.207,0-8.678-3.471-8.678-8.678c0-9.546-7.81-17.356-17.356-17.356c-9.546,0-17.356,7.81-17.356,17.356
		c0,5.207-3.471,8.678-8.678,8.678s-8.678-3.471-8.678-8.678c0-19.092,15.62-34.712,34.712-34.712s34.712,15.62,34.712,34.712
		C212.032,126.698,208.561,130.169,203.354,130.169z"/>
	<path d="M324.846,455.593c-5.207,0-8.678-3.471-8.678-8.678c0-16.488,13.885-30.373,30.373-30.373c5.207,0,8.678,3.471,8.678,8.678
		s-3.471,8.678-8.678,8.678c-6.942,0-13.017,6.075-13.017,13.017C333.523,452.122,330.052,455.593,324.846,455.593z"/>
	<path d="M125.252,451.254c-5.207,0-8.678-3.471-8.678-8.678c0-16.488,13.885-30.373,30.373-30.373c5.207,0,8.678,3.471,8.678,8.678
		c0,5.207-3.471,8.678-8.678,8.678c-6.942,0-13.017,6.075-13.017,13.017C133.93,447.783,130.459,451.254,125.252,451.254z"/>
	<path d="M116.574,190.915c0,5.207-3.471,8.678-8.678,8.678s-8.678-3.471-8.678-8.678s3.471-8.678,8.678-8.678
		S116.574,185.708,116.574,190.915"/>
</g>
</svg>