<?xml version="1.0" encoding="iso-8859-1"?>
<!-- Uploaded to: SVG Repo, www.svgrepo.com, Generator: SVG Repo Mixer Tools -->
<svg height="800px" width="800px" version="1.1" id="Layer_1" xmlns="http://www.w3.org/2000/svg" xmlns:xlink="http://www.w3.org/1999/xlink" 
	 viewBox="0 0 511.998 511.998" xml:space="preserve">
<polygon style="fill:#E1B658;" points="296.772,204.08 229.445,159.718 215.965,164.547 295.099,216.154 "/>
<path style="fill:#EFD18D;" d="M256,138.888c15.178,0,27.524-12.347,27.524-27.523c0-5.481-1.617-10.588-4.388-14.882
	c-0.109,0.115-8.536,7.377-23.135,7.377c-14.599,0-23.027-7.262-23.135-7.377c-2.773,4.293-4.388,9.401-4.388,14.882
	C228.477,126.541,240.823,138.888,256,138.888z M264.989,112.712c0.977-0.965,2.325-1.524,3.708-1.524
	c1.372,0,2.72,0.558,3.697,1.524c0.965,0.976,1.524,2.325,1.524,3.707c0,1.372-0.558,2.72-1.524,3.697
	c-0.977,0.978-2.325,1.534-3.697,1.534c-1.383,0-2.733-0.557-3.708-1.534c-0.976-0.976-1.533-2.325-1.533-3.697
	C263.455,115.037,264.013,113.688,264.989,112.712z M239.612,112.712c0.978-0.965,2.325-1.524,3.698-1.524
	c1.382,0,2.732,0.558,3.707,1.524c0.965,0.976,1.535,2.325,1.535,3.707c0,1.372-0.57,2.72-1.535,3.697
	c-0.976,0.978-2.325,1.534-3.707,1.534c-1.373,0-2.72-0.557-3.698-1.534c-0.965-0.976-1.523-2.325-1.523-3.697
	C238.089,115.037,238.647,113.688,239.612,112.712z"/>
<path style="fill:#E1B658;" d="M251.689,240.892h8.622v-4.96c-1.397,0.019-7.225,0.019-8.622,0V240.892z"/>
<g>
	<path style="fill:#FF5240;" d="M246.334,225.342c0.042-0.001,19.125-0.013,19.21-0.013c0.043,0,16.718-1.135,21.422-1.989
		l-75.927-49.515l6.601,47.675C220.918,222.657,229.104,224.754,246.334,225.342z"/>
	<path style="fill:#FF5240;" d="M238.352,64.982l2.132,11.723c4.741-2.131,9.99-3.327,15.517-3.327
		c5.525,0,10.774,1.195,15.516,3.326l2.132-11.721C273.649,64.982,238.352,64.982,238.352,64.982z"/>
</g>
<path style="fill:#FFFFFF;" d="M281.507,240.892l1.219-6.331c-3.403,0.424-7.352,0.785-11.952,1.033v5.299h10.732V240.892z"/>
<path style="fill:#E1B658;" d="M240.12,88.904c0.122,0.164,4.686,4.493,15.881,4.493c11.195,0,15.878-4.493,15.878-4.493
	c-4.491-3.183-9.967-5.063-15.88-5.063C250.088,83.84,244.611,85.72,240.12,88.904z"/>
<path style="fill:#FF5240;" d="M199.181,192.824c-2.444,1.082-5.139,1.695-7.979,1.695c-2.841,0-5.539-0.613-7.984-1.696
	l1.89,68.852h12.184L199.181,192.824z"/>
<g>
	<circle style="fill:#129A58;" cx="191.161" cy="174.804" r="9.525"/>
	<polygon style="fill:#129A58;" points="183.493,292.514 198.909,292.514 200.527,272.137 181.876,272.137 	"/>
</g>
<path style="fill:#E1B658;" d="M275.552,54.52l5.463-30.034c-1.883-3.593-8.75-14.023-25.016-14.023
	c-16.238,0-23.108,10.397-25.012,14.028l5.461,30.029C236.448,54.52,275.552,54.52,275.552,54.52z"/>
<polygon style="fill:#FF5240;" points="298.362,192.599 301.953,166.667 282.556,159.718 265.508,170.951 "/>
<g>
	<path style="fill:#EFD18D;" d="M256,149.35c-5.172,0-10.103-1.042-14.602-2.924v5.327c0,1.009-0.301,1.962-0.813,2.777L256,164.687
		l15.415-10.157c-0.512-0.816-0.813-1.768-0.813-2.777v-5.327C266.104,148.307,261.173,149.35,256,149.35z"/>
	<path style="fill:#EFD18D;" d="M183.845,306.334c0,4.056,3.3,7.355,7.356,7.355s7.355-3.299,7.355-7.355v-3.357h-14.711V306.334z"
		/>
	<path style="fill:#EFD18D;" d="M313.441,306.334c0,4.056,3.3,7.355,7.356,7.355c4.057,0,7.357-3.299,7.357-7.355v-3.357h-14.714
		V306.334z"/>
</g>
<g>
	<polygon style="fill:#129A58;" points="313.093,292.514 328.507,292.514 330.125,272.137 311.475,272.137 	"/>
	<circle style="fill:#129A58;" cx="320.72" cy="174.804" r="9.525"/>
</g>
<path style="fill:#FFFFFF;" d="M241.227,240.892v-5.299c-4.601-0.249-8.55-0.608-11.954-1.033l1.221,6.331h10.733V240.892z"/>
<g>
	<path style="fill:#FF5240;" d="M328.781,192.823c-2.444,1.083-5.142,1.696-7.983,1.696c-2.84,0-5.537-0.613-7.98-1.695
		l1.889,68.851h12.184L328.781,192.823z"/>
	<path style="fill:#FF5240;" d="M285.193,251.354h-58.349c-2.191,0.641-10.435,3.893-10.435,16.611v33.865
		c6.073,0.895,19.031,2.333,39.59,2.333c20.558,0,33.513-1.438,39.59-2.334v-33.863
		C295.588,255.082,287.207,251.926,285.193,251.354z M276.117,293.556h-40.226c-2.889,0-5.231-2.342-5.231-5.231
		s2.342-5.231,5.231-5.231h40.226c2.889,0,5.231,2.342,5.231,5.231C281.348,291.215,279.005,293.556,276.117,293.556z
		 M276.117,272.137h-40.226c-2.889,0-5.231-2.342-5.231-5.231s2.342-5.231,5.231-5.231h40.226c2.889,0,5.231,2.342,5.231,5.231
		C281.348,269.795,279.005,272.137,276.117,272.137z"/>
</g>
<g>
	<path style="fill:#E1B658;" d="M279.987,489.115h-18.751v12.421h26.405c-0.391-3.764-1.4-8.387-3.719-10.816
		C282.86,489.61,281.647,489.115,279.987,489.115z"/>
	<path style="fill:#E1B658;" d="M228.079,490.722c-2.318,2.427-3.327,7.049-3.718,10.816h26.404v-12.421h-18.751
		C230.354,489.115,229.14,489.61,228.079,490.722z"/>
</g>
<path style="fill:#129A58;" d="M224.474,313.318l12.386,165.334h13.907V329.265c0-2.889,2.342-5.231,5.231-5.231
	s5.231,2.342,5.231,5.231v149.387h13.909l12.386-165.334c-7.439,0.695-17.859,1.305-31.527,1.305
	C242.333,314.625,231.915,314.014,224.474,313.318z"/>
<g>
	<path style="fill:#4F413B;" d="M276.117,261.675h-40.226c-2.889,0-5.231,2.342-5.231,5.231s2.342,5.231,5.231,5.231h40.226
		c2.889,0,5.231-2.342,5.231-5.231C281.348,264.016,279.005,261.675,276.117,261.675z"/>
	<path style="fill:#4F413B;" d="M276.117,283.094h-40.226c-2.889,0-5.231,2.342-5.231,5.231s2.342,5.231,5.231,5.231h40.226
		c2.889,0,5.231-2.342,5.231-5.231S279.005,283.094,276.117,283.094z"/>
	<path style="fill:#4F413B;" d="M243.309,121.65c1.382,0,2.732-0.557,3.707-1.534c0.965-0.976,1.535-2.325,1.535-3.697
		c0-1.382-0.57-2.732-1.535-3.707c-0.976-0.965-2.325-1.524-3.707-1.524c-1.373,0-2.72,0.558-3.698,1.524
		c-0.965,0.976-1.523,2.325-1.523,3.707c0,1.372,0.558,2.72,1.523,3.697C240.589,121.093,241.937,121.65,243.309,121.65z"/>
	<path style="fill:#4F413B;" d="M268.698,121.65c1.372,0,2.72-0.557,3.697-1.534c0.965-0.976,1.524-2.325,1.524-3.697
		c0-1.382-0.558-2.732-1.524-3.707c-0.977-0.965-2.325-1.524-3.697-1.524c-1.383,0-2.733,0.558-3.708,1.524
		c-0.976,0.976-1.533,2.325-1.533,3.707c0,1.372,0.557,2.72,1.533,3.697C265.966,121.093,267.314,121.65,268.698,121.65z"/>
	<path style="fill:#4F413B;" d="M339.632,263.356c-0.625-0.677-1.421-1.143-2.282-1.415l2.223-80.987
		c0.652-1.961,1.02-4.05,1.02-6.227c0-10.915-8.88-19.793-19.794-19.793c-4.112,0-7.932,1.262-11.101,3.415
		c-0.074-0.029-28.633-10.279-28.633-10.279v-8.199c7.915-6.966,12.922-17.161,12.922-28.507c0-11.36-5.02-21.565-12.951-28.532
		l10.569-58.104c0.172-0.944,0.079-1.918-0.264-2.814C290.997,21.019,282.606,0,255.999,0c-26.604,0-34.996,21.018-35.339,21.914
		c-0.343,0.896-0.436,1.868-0.265,2.813l10.567,58.106c-7.929,6.967-12.949,17.171-12.949,28.531
		c0,11.347,5.008,21.541,12.922,28.507v8.199c0,0-28.617,10.26-28.645,10.272c-3.165-2.151-6.983-3.41-11.09-3.41
		c-10.916,0-19.795,8.879-19.795,19.793c0,2.177,0.367,4.268,1.02,6.227l2.223,80.989c-0.86,0.27-1.655,0.737-2.28,1.414
		c-0.99,1.073-1.487,2.509-1.373,3.964l2.403,30.255c-0.002,0.058-0.017,8.758-0.017,8.758c0,9.824,7.993,17.818,17.819,17.818
		c8.318,0,15.302-5.737,17.256-13.457c0.475,0.291,1,0.514,1.568,0.643c0.169,0.037,1.432,0.316,3.862,0.699L226.44,479.62
		c-2.233,0.809-4.248,2.106-5.952,3.898c-7.339,7.715-6.853,21.916-6.774,23.51c0.138,2.784,2.437,4.97,5.224,4.97h74.12
		c2.788,0,5.086-2.187,5.224-4.97c0.079-1.594,0.565-15.795-6.774-23.51c-1.704-1.791-3.719-3.089-5.952-3.898l12.555-167.586
		c2.427-0.381,3.692-0.66,3.859-0.699c0.567-0.128,1.092-0.352,1.568-0.643c1.954,7.72,8.937,13.457,17.257,13.457
		c9.825,0,17.82-7.993,17.82-17.818c0,0-0.015-8.7-0.017-8.758l2.403-30.255C341.119,265.864,340.621,264.429,339.632,263.356z
		 M198.556,306.334c0,4.056-3.299,7.355-7.355,7.355s-7.356-3.299-7.356-7.355v-3.357h14.711V306.334z M198.909,292.514h-15.416
		l-1.618-20.377h18.651L198.909,292.514z M183.217,192.823c2.446,1.083,5.143,1.696,7.984,1.696c2.84,0,5.537-0.613,7.979-1.695
		l-1.889,68.851h-12.184L183.217,192.823z M191.159,184.327c-5.26,0-9.525-4.266-9.525-9.525c0-5.26,4.265-9.525,9.525-9.525
		c5.26,0,9.525,4.265,9.525,9.525C200.685,180.062,196.42,184.327,191.159,184.327z M282.556,159.718l19.397,6.949l-3.591,25.933
		l-32.854-21.648L282.556,159.718z M271.414,154.53L256,164.687l-15.415-10.157c0.512-0.815,0.813-1.768,0.813-2.777v-5.327
		c4.498,1.881,9.429,2.924,14.602,2.924c5.173,0,10.103-1.042,14.602-2.924v5.327C270.602,152.762,270.903,153.713,271.414,154.53z
		 M255.999,10.462c16.264,0,23.131,10.43,25.016,14.023l-5.463,30.034h-39.103l-5.461-30.03
		C232.891,20.86,239.762,10.462,255.999,10.462z M271.516,76.704c-4.741-2.131-9.99-3.326-15.516-3.326
		c-5.526,0-10.776,1.196-15.517,3.327l-2.132-11.723h35.296L271.516,76.704z M271.879,88.904c0,0-4.684,4.493-15.878,4.493
		c-11.195,0-15.76-4.33-15.881-4.493c4.491-3.183,9.968-5.063,15.88-5.063C261.912,83.84,267.389,85.72,271.879,88.904z
		 M228.477,111.364c0-5.481,1.617-10.588,4.388-14.882c0.109,0.115,8.536,7.377,23.135,7.377s23.027-7.262,23.135-7.377
		c2.773,4.293,4.388,9.401,4.388,14.882c0,15.176-12.347,27.523-27.524,27.523C240.823,138.888,228.477,126.541,228.477,111.364z
		 M229.445,159.718l67.327,44.362l-1.672,12.075l-79.134-51.607L229.445,159.718z M286.965,223.34
		c-4.705,0.854-21.379,1.989-21.422,1.989c-0.084,0-19.167,0.012-19.21,0.013c-17.229-0.588-25.416-2.685-28.695-3.842
		l-6.601-47.675L286.965,223.34z M282.727,234.56l-1.219,6.331h-10.732v-5.299C275.374,235.344,279.324,234.985,282.727,234.56z
		 M260.311,235.931v4.96h-8.622v-4.96C253.087,235.95,258.914,235.95,260.311,235.931z M241.227,235.593v5.299h-10.733l-1.221-6.331
		C232.677,234.985,236.626,235.344,241.227,235.593z M207.897,256.57l0.78-28.41c0.287,0.384,2.47,3.167,9.559,4.419l1.962,10.189
		C215.686,245.035,210.607,249.382,207.897,256.57z M250.764,501.538h-26.403c0.391-3.765,1.4-8.389,3.718-10.816
		c1.061-1.111,2.275-1.607,3.935-1.607h18.751v12.422H250.764z M287.64,501.538h-26.405v-12.421h18.751
		c1.66,0,2.874,0.495,3.935,1.607C286.241,493.15,287.25,497.772,287.64,501.538z M275.139,478.653H261.23V329.265
		c0-2.889-2.342-5.231-5.231-5.231s-5.231,2.342-5.231,5.231v149.387H236.86l-12.386-165.334c7.44,0.695,17.859,1.305,31.524,1.305
		c13.667,0,24.088-0.61,31.527-1.305L275.139,478.653z M295.588,301.828c-6.076,0.896-19.032,2.334-39.59,2.334
		c-20.559,0-33.517-1.438-39.59-2.333v-33.865c0-12.718,8.243-15.97,10.435-16.611h58.349c2.013,0.572,10.395,3.728,10.395,16.611
		v33.863H295.588z M291.8,242.767l1.962-10.19c6.102-1.009,9.481-4.294,9.558-4.397l0.78,28.389
		C301.392,249.382,296.314,245.035,291.8,242.767z M328.156,306.334c0,4.056-3.3,7.355-7.357,7.355
		c-4.056,0-7.356-3.299-7.356-7.355v-3.357h14.714V306.334z M328.507,292.514h-15.415l-1.618-20.377h18.65L328.507,292.514z
		 M312.817,192.824c2.445,1.082,5.141,1.695,7.98,1.695c2.841,0,5.539-0.613,7.983-1.696l-1.89,68.852h-12.184L312.817,192.824z
		 M320.723,184.327c-5.26,0-9.525-4.266-9.525-9.525c0-5.26,4.265-9.525,9.525-9.525s9.525,4.265,9.525,9.525
		C330.248,180.062,325.983,184.327,320.723,184.327z"/>
</g>
</svg>